<!DOCTYPE svg PUBLIC "-//W3C//DTD SVG 1.1//EN" "http://www.w3.org/Graphics/SVG/1.1/DTD/svg11.dtd">
<!-- Uploaded to: SVG Repo, www.svgrepo.com, Transformed by: SVG Repo Mixer Tools -->
<svg fill="#00fa57" height="800px" width="800px" version="1.1" id="Capa_1" xmlns="http://www.w3.org/2000/svg" xmlns:xlink="http://www.w3.org/1999/xlink" viewBox="0 0 433.854 433.854" xml:space="preserve" stroke="#00fa57">
<g id="SVGRepo_bgCarrier" stroke-width="0"/>
<g id="SVGRepo_tracerCarrier" stroke-linecap="round" stroke-linejoin="round"/>
<g id="SVGRepo_iconCarrier"> <g> <path d="M334.127,149.308c24.538,0,44.5-19.963,44.5-44.5s-19.962-44.5-44.5-44.5s-44.5,19.963-44.5,44.5 S309.589,149.308,334.127,149.308z M334.127,80.308c13.509,0,24.5,10.991,24.5,24.5s-10.991,24.5-24.5,24.5s-24.5-10.991-24.5-24.5 S320.618,80.308,334.127,80.308z"/> <path d="M395.473,56.137c-24.791-24.79-57.75-38.442-92.809-38.442c-31.821,0-61.914,11.248-85.737,31.863 c-23.823-20.614-53.917-31.863-85.738-31.863c-35.058,0-68.018,13.653-92.809,38.443c-51.174,51.175-51.174,134.442,0,185.617 L209.856,413.23c1.875,1.875,4.419,2.929,7.071,2.929s5.196-1.053,7.071-2.929l171.475-171.475 C446.647,190.58,446.647,107.313,395.473,56.137z M52.523,70.28c21.688-21.688,50.178-32.532,78.667-32.532 c28.489,0,56.979,10.844,78.667,32.533c1.875,1.875,4.419,2.929,7.071,2.929c2.652,0,5.196-1.054,7.071-2.929 c21.012-21.012,48.95-32.584,78.666-32.584s57.654,11.572,78.666,32.585c39.973,39.973,43.109,103.045,9.41,146.644 c-47.56-43.824-108.923-67.846-173.994-67.846c-17.855,0-35.429,1.826-52.521,5.356c-8.687-17.857-17.552-31.011-22.643-37.968 l0.568-0.345c3.705-2.252,8.028-2.791,12.171-1.516c4.144,1.275,7.417,4.15,9.214,8.096c1.677,3.682,5.308,5.856,9.106,5.856 c1.387,0,2.796-0.29,4.14-0.902c5.026-2.29,7.244-8.22,4.954-13.246c-3.652-8.015-10.191-14.321-18.232-17.713 c6.868-1.312,14.039-0.178,20.204,3.299c4.81,2.713,10.909,1.013,13.623-3.796c2.713-4.81,1.014-10.91-3.797-13.623 c-12.377-6.982-27.184-8.336-40.621-3.715c-6.787,2.334-12.908,6.087-18.012,10.918c-0.908-2.329-2.067-4.573-3.476-6.687 c-5.539-8.309-14.388-13.862-24.279-15.236l-4.492-0.624c-5.473-0.759-10.521,3.059-11.28,8.53 c-0.76,5.47,3.059,10.521,8.529,11.281l4.492,0.624c4.294,0.596,7.984,2.912,10.389,6.519c0.238,0.357,0.447,0.727,0.652,1.097 c-8.736-1.855-17.906-1.36-26.517,1.602c-13.438,4.621-24.28,14.794-29.746,27.912l-2.778,6.667 c-2.124,5.098,0.287,10.953,5.385,13.077c1.257,0.524,2.56,0.772,3.842,0.772c3.917,0,7.634-2.316,9.235-6.157l2.778-6.667 c3.268-7.844,9.751-13.927,17.788-16.691c6.375-2.193,13.264-2.127,19.536,0.075c-7.076,11.305-9.468,25.258-5.964,38.831 c1.165,4.509,5.225,7.502,9.676,7.502c0.827,0,1.669-0.104,2.507-0.32c5.348-1.381,8.563-6.835,7.183-12.182 c-1.448-5.607-1.208-11.321,0.468-16.549c4.166,6.138,9.75,15.072,15.423,26.254c-37.42,10.939-71.97,30.373-101.282,57.326 C9.426,173.142,12.608,110.195,52.523,70.28z M188.416,243.689c-1.581-26.53-8.081-50.472-15.949-70.489 c14.452-2.716,29.258-4.121,44.281-4.121c60.031,0,116.64,22.169,160.506,62.612l-51.108,51.109 c-30.187-26.841-68.66-41.521-109.397-41.521C207.151,241.278,197.682,242.093,188.416,243.689z M168.625,248.374 c-22.429,6.808-43.203,18.405-61.085,34.256l-51.107-51.107c27.766-25.547,60.629-43.785,96.227-53.718 C160.733,197.577,167.517,221.705,168.625,248.374z M216.927,392.017l-95.219-95.219c26.358-22.974,59.731-35.52,95.038-35.52 c35.392,0,68.841,12.609,95.23,35.689L216.927,392.017z"/> </g> </g>
</svg>